<svg width="50" height="53" viewBox="0 0 50 53" fill="none" xmlns="http://www.w3.org/2000/svg">
<g filter="url(#filter0_d_903_10723)">
<path d="M45 24C45 12.9543 36.0456 4 25 4C13.9543 4 5 12.9543 5 24C5 35.0456 13.9543 44 25 44C36.0456 44 45 35.0456 45 24Z" stroke="white" stroke-width="2"/>
<path d="M41 11.398C39.1306 11.5327 36.7362 12.2565 35.0758 14.4055C32.077 18.2872 29.078 18.6111 27.0788 17.3172C24.0798 15.3764 26.6 12.2327 23.0802 10.5243C20.7863 9.41084 20.4664 6.3809 21.7432 4" stroke="white" stroke-width="2" stroke-linejoin="round"/>
<path d="M5 22C6.525 23.3242 8.66092 24.5364 11.1775 24.5364C16.3769 24.5364 17.4167 25.5298 17.4167 29.5036C17.4167 33.4774 17.4167 33.4774 18.4566 36.4576C19.133 38.3962 19.3694 40.3348 18.0212 42" stroke="white" stroke-width="2" stroke-linejoin="round"/>
<path d="M45 26.9046C43.2258 25.8822 41 25.4616 38.7468 27.081C34.4354 30.1796 31.4628 27.612 30.1238 30.1778C28.153 33.955 35.1914 35.1422 29 44" stroke="white" stroke-width="2" stroke-linejoin="round"/>
</g>
<defs>
<filter id="filter0_d_903_10723" x="-3" y="0" width="56" height="56" filterUnits="userSpaceOnUse" color-interpolation-filters="sRGB">
<feFlood flood-opacity="0" result="BackgroundImageFix"/>
<feColorMatrix in="SourceAlpha" type="matrix" values="0 0 0 0 0 0 0 0 0 0 0 0 0 0 0 0 0 0 127 0" result="hardAlpha"/>
<feOffset dy="4"/>
<feGaussianBlur stdDeviation="2"/>
<feComposite in2="hardAlpha" operator="out"/>
<feColorMatrix type="matrix" values="0 0 0 0 0 0 0 0 0 0 0 0 0 0 0 0 0 0 0.25 0"/>
<feBlend mode="normal" in2="BackgroundImageFix" result="effect1_dropShadow_903_10723"/>
<feBlend mode="normal" in="SourceGraphic" in2="effect1_dropShadow_903_10723" result="shape"/>
</filter>
</defs>
</svg>
