<svg width="40" height="40" viewBox="0 0 40 40" fill="none" xmlns="http://www.w3.org/2000/svg">
<path d="M34.9844 18.6375L34.9844 13.7992C34.9844 11.0658 34.9844 9.69916 34.3109 8.80751C33.6374 7.91585 32.1146 7.48296 29.0689 6.6172C26.9881 6.0257 25.1537 5.31308 23.6882 4.66251C21.6901 3.77553 20.6909 3.33203 19.9844 3.33203C19.2777 3.33203 18.2787 3.77553 16.2806 4.66251C14.815 5.31308 12.9808 6.02568 10.8999 6.6172C7.85424 7.48296 6.33141 7.91585 5.65789 8.80751C4.98438 9.69916 4.98438 11.0658 4.98438 13.7992L4.98438 18.6375C4.98438 28.0129 13.4223 33.6379 17.6409 35.8644C18.6527 36.3984 19.1587 36.6654 19.9844 36.6654C20.8101 36.6654 21.3159 36.3984 22.3277 35.8644C26.5464 33.6379 34.9844 28.0129 34.9844 18.6375Z" stroke="#2A7308" stroke-width="2.5" stroke-linecap="round"/>
<path d="M14.1543 19.7235C14.1543 19.7235 15.6126 19.7235 17.071 22.5013C17.071 22.5013 21.7033 15.5569 25.821 14.168" stroke="#2A7308" stroke-width="2.5" stroke-linecap="round" stroke-linejoin="round"/>
</svg>
